#Comment line ignore any data following # character 
#Hierarchical Translation and Rotation (.htr) file 
[Header]	
#Header keywords are followed by a single value 
FileType HTR		#Single word string
DataType HTRS		#Translation followed by rotation and scale data
FileVersion 1		#integer
NumSegments 84		#integer
NumFrames 2		#integer
DataFrameRate 30		#integer, data frame rate in this file
EulerRotationOrder ZYX
CalibrationUnits mm
RotationUnits Degrees
GlobalAxisofGravity Y
BoneLengthAxis Y
ScaleFactor 1.00
[SegmentNames&Hierarchy]
#CHILD	PARENT
MASTER GLOBAL
root MASTER
chest root
L_mid_tent01 root
R_mid_tent01 root
spine01 root
Bip01_Neck chest
L_humerus chest
R_humerus chest
weapon_bone chest
Bip01_Head Bip01_Neck
eye_left_bone Bip01_Head
eye_right_bone Bip01_Head
L_forearm L_humerus
L_front_hand L_forearm
L_weapon_bone L_forearm
L_front_hand01_01 L_front_hand
L_front_hand02_01 L_front_hand
L_front_hand03_01 L_front_hand
L_front_hand01_02 L_front_hand01_01
L_front_hand02_02 L_front_hand02_01
L_front_hand03_02 L_front_hand03_01
R_forearm R_humerus
R_front_hand R_forearm
R_weapon_bone R_forearm
R_front_hand01_01 R_front_hand
R_front_hand02_01 R_front_hand
R_front_hand03_01 R_front_hand
R_front_hand01_02 R_front_hand01_01
R_front_hand02_02 R_front_hand02_01
R_front_hand03_02 R_front_hand03_01
null_rope01_connect L_mid_tent01
Rope1_Seg01 null_rope01_connect
Rope1_Seg02 Rope1_Seg01
Rope1_Seg03 Rope1_Seg02
Rope1_Seg04 Rope1_Seg03
Rope1_Seg05 Rope1_Seg04
Rope1_Seg06 Rope1_Seg05
Rope1_Seg07 Rope1_Seg06
Rope1_Seg09 Rope1_Seg07
L_mid_hand01 Rope1_Seg09
L_mid_hand02 Rope1_Seg09
L_mid_hand03 Rope1_Seg09
null_rope02_connect R_mid_tent01
Rope2_Seg01 null_rope02_connect
Rope2_Seg02 Rope2_Seg01
Rope2_Seg03 Rope2_Seg02
Rope2_Seg04 Rope2_Seg03
Rope2_Seg05 Rope2_Seg04
Rope2_Seg06 Rope2_Seg05
Rope2_Seg07 Rope2_Seg06
Rope2_Seg09 Rope2_Seg07
R_mid_hand01 Rope2_Seg09
R_mid_hand02 Rope2_Seg09
R_mid_hand03 Rope2_Seg09
spine02 spine01
spine03 spine02
pelvis spine03
null_rope03_connect pelvis
null_rope04_connect pelvis
Rope3_Seg01 null_rope03_connect
Rope3_Seg02 Rope3_Seg01
Rope3_Seg03 Rope3_Seg02
Rope3_Seg04 Rope3_Seg03
Rope3_Seg05 Rope3_Seg04
Rope3_Seg06 Rope3_Seg05
Rope3_Seg07 Rope3_Seg06
Rope3_Seg08 Rope3_Seg07
Rope3_Seg09 Rope3_Seg08
R_rear_hand01 Rope3_Seg09
R_rear_hand02 Rope3_Seg09
R_rear_hand03 Rope3_Seg09
Rope4_Seg01 null_rope04_connect
Rope4_Seg02 Rope4_Seg01
Rope4_Seg03 Rope4_Seg02
Rope4_Seg04 Rope4_Seg03
Rope4_Seg05 Rope4_Seg04
Rope4_Seg06 Rope4_Seg05
Rope4_Seg07 Rope4_Seg06
Rope4_Seg08 Rope4_Seg07
Rope4_Seg09 Rope4_Seg08
L_rear_hand01 Rope4_Seg09
L_rear_hand02 Rope4_Seg09
L_rear_hand03 Rope4_Seg09
[BasePosition]
#SegmentName Tx, Ty, Tz, Rx, Ry, Rz, BoneLength
MASTER 0.000000 0.000000 0.000000 -90.000000 0.000000 0.000000 10.000000 
root 0.000000 0.000000 0.000000 0.000000 0.000000 0.000000 10.000000 
chest 0.000000 0.000000 0.000000 0.000000 0.000000 0.000000 10.000000 
L_mid_tent01 0.000000 0.000000 0.000000 0.000000 0.000000 0.000000 10.000000 
R_mid_tent01 0.000000 0.000000 0.000000 0.000000 0.000000 0.000000 10.000000 
spine01 0.000000 0.000000 0.000000 0.000000 0.000000 0.000000 10.000000 
Bip01_Neck 0.000000 0.000000 0.000000 0.000000 0.000000 0.000000 10.000000 
L_humerus 0.000000 0.000000 0.000000 0.000000 0.000000 0.000000 10.000000 
R_humerus 0.000000 0.000000 0.000000 0.000000 0.000000 0.000000 10.000000 
weapon_bone 0.000000 0.000000 0.000000 0.000000 0.000000 0.000000 10.000000 
Bip01_Head 0.000000 0.000000 0.000000 0.000000 0.000000 0.000000 10.000000 
eye_left_bone 0.000000 0.000000 0.000000 0.000000 0.000000 0.000000 10.000000 
eye_right_bone 0.000000 0.000000 0.000000 0.000000 0.000000 0.000000 10.000000 
L_forearm 0.000000 0.000000 0.000000 0.000000 0.000000 0.000000 10.000000 
L_front_hand 0.000000 0.000000 0.000000 0.000000 0.000000 0.000000 10.000000 
L_weapon_bone 0.000000 0.000000 0.000000 0.000000 0.000000 0.000000 10.000000 
L_front_hand01_01 0.000000 0.000000 0.000000 0.000000 0.000000 0.000000 10.000000 
L_front_hand02_01 0.000000 0.000000 0.000000 0.000000 0.000000 0.000000 10.000000 
L_front_hand03_01 0.000000 0.000000 0.000000 0.000000 0.000000 0.000000 10.000000 
L_front_hand01_02 0.000000 0.000000 0.000000 0.000000 0.000000 0.000000 10.000000 
L_front_hand02_02 0.000000 0.000000 0.000000 0.000000 0.000000 0.000000 10.000000 
L_front_hand03_02 0.000000 0.000000 0.000000 0.000000 0.000000 0.000000 10.000000 
R_forearm 0.000000 0.000000 0.000000 0.000000 0.000000 0.000000 10.000000 
R_front_hand 0.000000 0.000000 0.000000 0.000000 0.000000 0.000000 10.000000 
R_weapon_bone 0.000000 0.000000 0.000000 0.000000 0.000000 0.000000 10.000000 
R_front_hand01_01 0.000000 0.000000 0.000000 0.000000 0.000000 0.000000 10.000000 
R_front_hand02_01 0.000000 0.000000 0.000000 0.000000 0.000000 0.000000 10.000000 
R_front_hand03_01 0.000000 0.000000 0.000000 0.000000 0.000000 0.000000 10.000000 
R_front_hand01_02 0.000000 0.000000 0.000000 0.000000 0.000000 0.000000 10.000000 
R_front_hand02_02 0.000000 0.000000 0.000000 0.000000 0.000000 0.000000 10.000000 
R_front_hand03_02 0.000000 0.000000 0.000000 0.000000 0.000000 0.000000 10.000000 
null_rope01_connect 0.000000 0.000000 0.000000 0.000000 0.000000 0.000000 10.000000 
Rope1_Seg01 0.000000 0.000000 0.000000 0.000000 0.000000 0.000000 10.000000 
Rope1_Seg02 0.000000 0.000000 0.000000 0.000000 0.000000 0.000000 10.000000 
Rope1_Seg03 0.000000 0.000000 0.000000 0.000000 0.000000 0.000000 10.000000 
Rope1_Seg04 0.000000 0.000000 0.000000 0.000000 0.000000 0.000000 10.000000 
Rope1_Seg05 0.000000 0.000000 0.000000 0.000000 0.000000 0.000000 10.000000 
Rope1_Seg06 0.000000 0.000000 0.000000 0.000000 0.000000 0.000000 10.000000 
Rope1_Seg07 0.000000 0.000000 0.000000 0.000000 0.000000 0.000000 10.000000 
Rope1_Seg09 0.000000 0.000000 0.000000 0.000000 0.000000 0.000000 10.000000 
L_mid_hand01 0.000000 0.000000 0.000000 0.000000 0.000000 0.000000 10.000000 
L_mid_hand02 0.000000 0.000000 0.000000 0.000000 0.000000 0.000000 10.000000 
L_mid_hand03 0.000000 0.000000 0.000000 0.000000 0.000000 0.000000 10.000000 
null_rope02_connect 0.000000 0.000000 0.000000 0.000000 0.000000 0.000000 10.000000 
Rope2_Seg01 0.000000 0.000000 0.000000 0.000000 0.000000 0.000000 10.000000 
Rope2_Seg02 0.000000 0.000000 0.000000 0.000000 0.000000 0.000000 10.000000 
Rope2_Seg03 0.000000 0.000000 0.000000 0.000000 0.000000 0.000000 10.000000 
Rope2_Seg04 0.000000 0.000000 0.000000 0.000000 0.000000 0.000000 10.000000 
Rope2_Seg05 0.000000 0.000000 0.000000 0.000000 0.000000 0.000000 10.000000 
Rope2_Seg06 0.000000 0.000000 0.000000 0.000000 0.000000 0.000000 10.000000 
Rope2_Seg07 0.000000 0.000000 0.000000 0.000000 0.000000 0.000000 10.000000 
Rope2_Seg09 0.000000 0.000000 0.000000 0.000000 0.000000 0.000000 10.000000 
R_mid_hand01 0.000000 0.000000 0.000000 0.000000 0.000000 0.000000 10.000000 
R_mid_hand02 0.000000 0.000000 0.000000 0.000000 0.000000 0.000000 10.000000 
R_mid_hand03 0.000000 0.000000 0.000000 0.000000 0.000000 0.000000 10.000000 
spine02 0.000000 0.000000 0.000000 0.000000 0.000000 0.000000 10.000000 
spine03 0.000000 0.000000 0.000000 0.000000 0.000000 0.000000 10.000000 
pelvis 0.000000 0.000000 0.000000 0.000000 0.000000 0.000000 10.000000 
null_rope03_connect 0.000000 0.000000 0.000000 0.000000 0.000000 0.000000 10.000000 
null_rope04_connect 0.000000 0.000000 0.000000 0.000000 0.000000 0.000000 10.000000 
Rope3_Seg01 0.000000 0.000000 0.000000 0.000000 0.000000 0.000000 10.000000 
Rope3_Seg02 0.000000 0.000000 0.000000 0.000000 0.000000 0.000000 10.000000 
Rope3_Seg03 0.000000 0.000000 0.000000 0.000000 0.000000 0.000000 10.000000 
Rope3_Seg04 0.000000 0.000000 0.000000 0.000000 0.000000 0.000000 10.000000 
Rope3_Seg05 0.000000 0.000000 0.000000 0.000000 0.000000 0.000000 10.000000 
Rope3_Seg06 0.000000 0.000000 0.000000 0.000000 0.000000 0.000000 10.000000 
Rope3_Seg07 0.000000 0.000000 0.000000 0.000000 0.000000 0.000000 10.000000 
Rope3_Seg08 0.000000 0.000000 0.000000 0.000000 0.000000 0.000000 10.000000 
Rope3_Seg09 0.000000 0.000000 0.000000 0.000000 0.000000 0.000000 10.000000 
R_rear_hand01 0.000000 0.000000 0.000000 0.000000 0.000000 0.000000 10.000000 
R_rear_hand02 0.000000 0.000000 0.000000 0.000000 0.000000 0.000000 10.000000 
R_rear_hand03 0.000000 0.000000 0.000000 0.000000 0.000000 0.000000 10.000000 
Rope4_Seg01 0.000000 0.000000 0.000000 0.000000 0.000000 0.000000 10.000000 
Rope4_Seg02 0.000000 0.000000 0.000000 0.000000 0.000000 0.000000 10.000000 
Rope4_Seg03 0.000000 0.000000 0.000000 0.000000 0.000000 0.000000 10.000000 
Rope4_Seg04 0.000000 0.000000 0.000000 0.000000 0.000000 0.000000 10.000000 
Rope4_Seg05 0.000000 0.000000 0.000000 0.000000 0.000000 0.000000 10.000000 
Rope4_Seg06 0.000000 0.000000 0.000000 0.000000 0.000000 0.000000 10.000000 
Rope4_Seg07 0.000000 0.000000 0.000000 0.000000 0.000000 0.000000 10.000000 
Rope4_Seg08 0.000000 0.000000 0.000000 0.000000 0.000000 0.000000 10.000000 
Rope4_Seg09 0.000000 0.000000 0.000000 0.000000 0.000000 0.000000 10.000000 
L_rear_hand01 0.000000 0.000000 0.000000 0.000000 0.000000 0.000000 10.000000 
L_rear_hand02 0.000000 0.000000 0.000000 0.000000 0.000000 0.000000 10.000000 
L_rear_hand03 0.000000 0.000000 0.000000 0.000000 0.000000 0.000000 10.000000 
#Beginning of Data. Separated by tabs
#Fr	Tx	Ty	Tz	Rx	Ry	Rz	SF
[MASTER]
5 0.000000 0.000000 0.000000 0.001660 0.001660 0.001660 0.000000
6 0.000000 0.000000 0.000000 0.001660 0.001660 0.001660 0.000000
[root]
5 -16.978554 -153.639481 278.294495 -86.867516 -51.854755 -91.544998 318.341309
6 -17.384630 -132.940628 363.499298 -87.365662 -49.948879 -91.260811 387.436646
[chest]
5 -84.512650 -34.090519 0.000000 2.337228 -1.784041 -122.971466 91.129311
6 -84.512650 -34.090519 0.000000 2.296890 -1.853337 -123.517593 91.129311
[L_mid_tent01]
5 27.356239 22.145014 -250.281250 -18.693665 -4.124106 103.780571 252.743881
6 27.370413 22.136887 -250.372055 -18.644827 -6.069020 95.323174 252.834625
[R_mid_tent01]
5 23.228794 24.509907 226.238495 -172.569412 3.609540 96.808189 228.744751
6 23.228794 24.509907 226.238495 -171.941711 4.210873 89.758614 228.744751
[spine01]
5 -0.361383 -0.195265 0.000000 0.001946 0.001312 22.026663 0.410763
6 -0.361383 -0.195265 0.000000 0.001946 0.001313 21.976274 0.410763
[Bip01_Neck]
5 165.484543 71.581718 0.000119 175.896118 1.177290 24.871183 180.302734
6 165.484543 71.581718 0.000119 175.896118 1.177290 24.871183 180.302734
[L_humerus]
5 -13.983130 -135.272980 -120.471481 -92.428581 0.648038 -174.652878 181.680161
6 -13.983130 -135.272980 -120.471481 -92.260605 0.689215 -173.080002 181.680161
[R_humerus]
5 -13.983309 -135.273102 125.287651 103.000740 1.729733 -169.272232 184.909012
6 -13.983309 -135.273102 125.287651 103.000740 1.729733 -169.272232 184.909012
[weapon_bone]
5 235.964890 -300.705902 0.000000 0.000000 -89.951546 -128.212341 382.234833
6 235.964890 -300.705902 0.000000 0.000000 -89.951546 -128.212341 382.234833
[Bip01_Head]
5 102.819801 23.735460 5.410370 3.150732 3.423701 -20.839090 105.662460
6 102.819809 23.735470 5.410364 3.150732 3.423702 -20.839094 105.662476
[eye_left_bone]
5 -24.626970 125.451866 -64.772606 0.000000 -90.000000 -99.840431 143.318359
6 -24.626970 125.451866 -64.772606 0.000000 -90.000000 -99.840431 143.318359
[eye_right_bone]
5 -24.626970 125.451866 64.327362 0.000000 -89.960434 80.159386 143.117676
6 -24.626970 125.451866 64.327362 0.000000 -89.960434 80.159386 143.117676
[L_forearm]
5 322.776093 0.000000 -0.000119 0.000017 0.002347 -89.149834 322.776093
6 322.776093 0.000000 -0.000119 0.000017 0.002347 -89.149826 322.776093
[L_front_hand]
5 241.149185 -0.042021 -3.300071 -177.736359 -0.145425 -77.819458 241.171753
6 241.149185 -0.042021 -3.300071 -177.735535 -0.136959 -77.895615 241.171753
[L_weapon_bone]
5 155.955887 1.643438 0.000208 0.002088 0.001071 35.685123 155.964539
6 155.874725 2.227983 0.000295 0.002126 0.000995 39.830204 155.890656
[L_front_hand01_01]
5 86.095154 20.947098 -0.655860 0.405585 -0.442306 -4.620490 88.609184
6 86.095154 20.947098 -0.655860 0.405585 -0.442306 -4.620490 88.609184
[L_front_hand02_01]
5 86.935165 -11.437475 24.513514 116.959450 3.630817 1.495453 91.046425
6 86.935165 -11.437475 24.513514 116.959450 3.630817 1.495452 91.046425
[L_front_hand03_01]
5 86.637497 -14.123976 -20.424902 -118.420097 -4.656303 -0.152527 90.126129
6 86.637497 -14.123976 -20.424902 -118.420113 -4.656303 -0.152527 90.126129
[L_front_hand01_02]
5 71.020905 -0.000179 0.000030 0.000004 -0.000005 -8.379269 71.020905
6 71.020905 -0.000179 0.000030 0.000004 -0.000005 -8.379269 71.020905
[L_front_hand02_02]
5 71.020927 -0.000119 0.000060 -0.000005 -0.000004 -8.379259 71.020927
6 71.020927 -0.000119 0.000060 -0.000005 -0.000004 -8.379259 71.020927
[L_front_hand03_02]
5 71.020905 -0.000060 0.000060 0.000015 -0.000040 -8.379267 71.020905
6 71.020905 -0.000060 0.000060 0.000015 -0.000040 -8.379267 71.020905
[R_forearm]
5 322.776428 -0.000060 0.000030 0.213327 -0.001188 -89.979233 322.776428
6 322.776428 -0.000060 0.000030 0.213300 0.003570 -91.300377 322.776428
[R_front_hand]
5 238.847015 -0.006795 2.210259 -1.693485 -0.329301 -89.721619 238.857239
6 238.847015 -0.006795 2.210259 -1.699416 -0.305415 -88.818329 238.857239
[R_weapon_bone]
5 155.664093 0.002503 -0.000030 0.003454 0.001271 -94.021912 155.664078
6 155.664093 0.002503 -0.000030 0.003438 0.001316 -95.487160 155.664078
[R_front_hand01_01]
5 87.624611 14.231146 22.918642 -116.960213 3.496675 -1.324139 91.683487
6 87.624611 14.231146 22.918642 -116.960213 3.496675 -1.324139 91.683487
[R_front_hand02_01]
5 89.356956 14.367283 -19.491137 118.419647 -4.257089 0.609827 92.579636
6 89.356956 14.367283 -19.491137 118.419647 -4.257089 0.609827 92.579636
[R_front_hand03_01]
5 87.286232 -22.307278 -0.143439 -0.387970 -0.231462 4.232001 90.091743
6 87.286232 -22.307278 -0.143439 -0.387970 -0.231462 4.232001 90.091743
[R_front_hand01_02]
5 71.020905 0.000060 0.000119 -0.000005 -0.000020 8.379271 71.020905
6 71.020905 0.000060 0.000119 -0.000005 -0.000020 8.379271 71.020905
[R_front_hand02_02]
5 71.020844 -0.000030 -0.000119 0.000000 -0.000021 8.379271 71.020836
6 71.020844 -0.000030 -0.000119 0.000000 -0.000021 8.379271 71.020836
[R_front_hand03_02]
5 71.020905 0.000000 0.000030 -0.000001 -0.000020 8.379275 71.020905
6 71.020905 0.000000 0.000030 -0.000001 -0.000020 8.379275 71.020905
[null_rope01_connect]
5 328.732483 0.000000 -0.000238 109.946465 -70.783829 -70.804100 328.732483
6 328.732483 0.000000 -0.000238 112.017006 -70.444420 -66.057610 328.732483
[Rope1_Seg01]
5 0.000068 -0.000072 0.000017 104.415565 -19.008392 178.768890 0.000100
6 0.000065 -0.000071 0.000022 98.066353 -27.097147 -173.370621 0.000099
[Rope1_Seg02]
5 139.999863 -0.000179 0.000000 -60.650120 -60.865387 68.325722 139.999863
6 139.999863 -0.000179 0.000000 -11.311978 -44.490177 22.569080 139.999863
[Rope1_Seg03]
5 139.999924 0.000060 -0.000060 -16.878014 -14.060355 6.637216 139.999924
6 139.999924 0.000060 -0.000060 -52.443981 -50.890125 15.820482 139.999924
[Rope1_Seg04]
5 139.999924 -0.000060 -0.000119 104.409149 4.360453 42.464146 139.999924
6 139.999924 -0.000060 -0.000119 72.934929 -6.530842 31.912867 139.999924
[Rope1_Seg05]
5 139.999832 0.000119 -0.000060 9.787485 31.177143 -11.013783 139.999832
6 139.999832 0.000119 -0.000060 57.701221 41.053009 19.337193 139.999832
[Rope1_Seg06]
5 139.999954 0.000119 -0.000060 1.076122 10.603510 -5.727451 139.999954
6 139.999954 0.000119 -0.000060 2.653967 12.571618 -5.725811 139.999954
[Rope1_Seg07]
5 139.999985 0.000060 0.000000 0.293489 4.114366 -2.348592 139.999985
6 139.999985 0.000060 0.000000 0.745234 5.310117 -2.761436 139.999985
[Rope1_Seg09]
5 121.602913 0.000119 -0.000089 -89.793175 -1.359789 0.847147 121.602913
6 121.602913 0.000119 -0.000089 -89.793175 -1.359789 0.847147 121.602913
[L_mid_hand01]
5 103.859421 1.038730 8.195221 104.352028 0.341479 -0.444583 104.187431
6 103.859421 1.038730 8.195221 104.352028 0.341479 -0.444583 104.187431
[L_mid_hand02]
5 105.572853 -4.139662 -10.864139 -135.608444 3.905687 -3.381056 106.211075
6 105.572853 -4.139662 -10.864139 -135.608444 3.905687 -3.381056 106.211075
[L_mid_hand03]
5 104.641464 17.579376 -3.913581 -18.761518 -0.324361 2.942913 106.179977
6 104.641464 17.579376 -3.913581 -18.761515 -0.324361 2.942912 106.179977
[null_rope02_connect]
5 328.732849 0.000179 -0.000119 124.046387 81.696060 -101.104317 328.732849
6 328.732849 0.000179 -0.000119 124.304703 80.770309 -106.056206 328.732849
[Rope2_Seg01]
5 0.000148 0.000114 -0.000017 -46.753246 -10.605862 44.637974 0.000188
6 0.000147 0.000114 -0.000022 -38.904526 -25.486752 25.378059 0.000188
[Rope2_Seg02]
5 139.999741 -0.000060 -0.000119 -2.698523 -25.607227 16.950165 139.999756
6 139.999741 -0.000060 -0.000119 -2.923491 -15.359456 25.118103 139.999756
[Rope2_Seg03]
5 140.000107 0.000030 0.000000 -12.629706 -20.661030 -9.149220 140.000107
6 140.000107 0.000030 0.000000 6.203019 -16.611063 27.774071 140.000107
[Rope2_Seg04]
5 139.999802 0.000000 -0.000060 -27.650723 -16.050930 -42.073494 139.999802
6 139.999802 0.000000 -0.000060 -33.588459 -36.583191 -43.919701 139.999802
[Rope2_Seg05]
5 139.999985 -0.000060 0.000119 -5.778532 1.623132 -13.866602 139.999985
6 139.999985 -0.000060 0.000119 -11.155655 -0.024612 -19.696686 139.999985
[Rope2_Seg06]
5 139.999893 -0.000030 -0.000119 -1.821868 1.275355 -5.863127 139.999893
6 139.999893 -0.000030 -0.000119 -2.995952 1.098554 -7.141364 139.999893
[Rope2_Seg07]
5 139.999893 0.000060 -0.000060 -0.433590 0.376846 -1.498387 139.999893
6 139.999893 0.000060 -0.000060 -0.949945 0.524738 -2.545112 139.999893
[Rope2_Seg09]
5 121.338966 0.000089 -0.000060 33.793236 -1.359788 -0.847141 121.338966
6 121.338966 0.000089 -0.000060 33.793236 -1.359788 -0.847141 121.338966
[R_mid_hand01]
5 104.680779 11.144459 -10.335981 -47.384258 2.963522 5.452604 105.778534
6 104.680779 11.144459 -10.335981 -47.384258 2.963522 5.452604 105.778534
[R_mid_hand02]
5 104.070427 2.443552 8.231699 75.626297 -2.250001 1.111093 104.424065
6 104.070427 2.443552 8.231699 75.626297 -2.250001 1.111093 104.424065
[R_mid_hand03]
5 106.028137 -11.221827 -5.996406 -164.381927 2.495984 -6.140520 106.788818
6 106.028137 -11.221827 -5.996406 -164.381927 2.495983 -6.140520 106.788818
[spine02]
5 129.756927 0.001550 0.000119 -2.789650 -3.401776 33.783104 129.756927
6 129.756927 0.001550 0.000119 -2.495720 -3.528006 29.011137 129.756927
[spine03]
5 79.088409 0.004713 -0.266043 4.652202 7.061731 44.261959 79.088860
6 79.081612 0.005892 -0.332552 4.302248 6.541305 40.653397 79.082306
[pelvis]
5 169.435242 0.051022 0.000000 -7.102811 -2.856392 13.722555 169.435257
6 169.435242 0.051022 0.000000 -7.005394 -2.844000 13.533952 169.435257
[null_rope03_connect]
5 -1.257226 -2.466202 137.391083 132.795685 -84.654419 -104.175156 137.418976
6 -1.257226 -2.466202 137.391083 132.057465 -84.686363 -96.779739 137.418976
[null_rope04_connect]
5 -1.259640 -2.480268 -137.844437 132.795685 -84.654419 -104.175156 137.872513
6 -1.259640 -2.480268 -137.844437 132.057465 -84.686363 -96.779739 137.872513
[Rope3_Seg01]
5 -0.000047 0.000097 -0.000008 14.432318 -24.621946 112.070175 0.000108
6 -0.000046 0.000093 -0.000008 -124.493805 -50.835773 -93.553314 0.000104
[Rope3_Seg02]
5 139.999924 -0.000119 0.000060 1.991014 -12.625524 -13.261079 139.999924
6 139.999924 -0.000119 0.000060 -48.156277 48.166477 -76.373199 139.999924
[Rope3_Seg03]
5 139.999924 -0.000119 0.000119 4.283978 -14.280549 3.360684 139.999924
6 139.999924 -0.000119 0.000119 -7.003146 19.946735 -16.717644 139.999924
[Rope3_Seg04]
5 139.999924 0.000119 0.000000 1.212157 -3.258396 0.932019 139.999924
6 139.999924 0.000119 0.000000 2.715698 -13.278967 -1.156408 139.999924
[Rope3_Seg05]
5 139.999924 -0.000238 0.000060 0.935770 -1.996692 0.613563 139.999924
6 139.999924 -0.000238 0.000060 1.347878 -4.333902 -0.262274 139.999924
[Rope3_Seg06]
5 139.999893 -0.000119 -0.000060 0.990333 -1.387160 0.454609 139.999893
6 139.999893 -0.000119 -0.000060 0.826257 -1.475162 -0.276112 139.999893
[Rope3_Seg07]
5 139.999771 0.000060 -0.000119 0.943096 -1.034996 0.359143 139.999771
6 139.999771 0.000060 -0.000119 0.799473 -1.011006 -0.173578 139.999771
[Rope3_Seg08]
5 139.999985 -0.000060 0.000000 0.831081 -0.677730 0.248982 139.999985
6 139.999985 -0.000060 0.000000 0.724292 -0.630748 -0.101258 139.999985
[Rope3_Seg09]
5 90.185997 -0.000179 -0.000060 89.793228 -1.359877 -0.847183 90.185997
6 90.185997 -0.000179 -0.000060 89.793228 -1.359877 -0.847183 90.185997
[R_rear_hand01]
5 103.366196 -6.073594 -10.757982 -156.049316 6.070419 -2.795869 104.101845
6 103.366196 -6.073594 -10.757982 -156.049316 6.070418 -2.795868 104.101845
[R_rear_hand02]
5 100.509819 12.039542 -7.992327 -38.708424 1.958051 5.461185 101.543350
6 100.509819 12.039542 -7.992327 -38.708427 1.958051 5.461185 101.543350
[R_rear_hand03]
5 101.539970 5.215704 5.435467 84.307625 -2.361032 4.099037 101.819031
6 101.539970 5.215704 5.435467 84.307625 -2.361032 4.099037 101.819031
[Rope4_Seg01]
5 -0.000003 0.000054 -0.000085 -101.973549 -11.751097 81.338715 0.000101
6 -0.000004 0.000049 -0.000087 -46.382378 -77.472443 7.682040 0.000100
[Rope4_Seg02]
5 139.999985 0.000060 0.000119 -5.155237 -1.066585 -26.510506 139.999985
6 139.999985 0.000060 0.000119 -3.588016 -42.058197 46.629711 139.999985
[Rope4_Seg03]
5 139.999924 0.000000 -0.000238 -2.524079 4.031383 -5.999989 139.999924
6 139.999924 0.000000 -0.000238 -1.804639 5.904843 -2.275446 139.999924
[Rope4_Seg04]
5 139.999985 0.000000 0.000119 -0.572963 1.101498 -1.631114 139.999985
6 139.999985 0.000000 0.000119 -0.477932 2.095432 -0.803265 139.999985
[Rope4_Seg05]
5 139.999802 -0.000060 -0.000119 -0.321524 0.725772 -1.048890 139.999802
6 139.999802 -0.000060 -0.000119 -0.023452 0.609973 -0.077497 139.999802
[Rope4_Seg06]
5 139.999924 0.000000 0.000060 -0.174879 0.524770 -0.750889 139.999924
6 139.999924 0.000000 0.000060 0.045994 0.412171 -0.052535 139.999924
[Rope4_Seg07]
5 139.999802 0.000000 0.000000 -0.074512 0.401893 -0.567356 139.999802
6 139.999802 0.000000 0.000000 0.090592 0.303376 -0.037640 139.999802
[Rope4_Seg08]
5 139.999924 0.000000 0.000119 -1.591801 0.268448 -0.377974 139.999924
6 139.999924 0.000000 0.000119 -1.482132 0.199172 -0.025626 139.999924
[Rope4_Seg09]
5 90.185791 0.000060 0.000060 -135.617828 2.228885 0.850567 90.185791
6 90.185791 0.000060 0.000060 -135.617828 2.228885 0.850567 90.185791
[L_rear_hand01]
5 101.696655 -8.392275 -7.654577 -38.746338 0.246096 177.290207 102.329041
6 101.696655 -8.392275 -7.654577 -38.746338 0.246096 177.290207 102.329041
[L_rear_hand02]
5 102.726799 -1.568258 5.773216 84.315163 -1.142796 176.247437 102.900848
6 102.726799 -1.568258 5.773216 84.315163 -1.142796 176.247437 102.900848
[L_rear_hand03]
5 104.552910 9.721220 -10.420293 -155.747955 -4.630845 179.564758 105.519653
6 104.552910 9.721220 -10.420293 -155.747955 -4.630845 179.564758 105.519653
